# xmcd
#
# Track frame offsets:
#	150
#	14680
#	31740
#	44735
#	72910
#	88285
#	116427
#	127022
#	140565
#	156872
#
# Disc length: 2470 seconds
#
# Revision: 2
# Processed by: cddbd v1.4PL0 Copyright (c) Steve Scherf et al.
# Submitted via: audiograbber 1.81.03
#
DISCID=9009a40a
DTITLE=Jimmy Thackery and John Mooney - Sideways In Paradise
DYEAR=1993
DGENRE=Blues
TTITLE0=Oh Louise
TTITLE1=Travellin' Riverside Blues
TTITLE2=Eliza
TTITLE3=I'll Come Running Back
TTITLE4=Niagra Falls
TTITLE5=Take Time
TTITLE6=Jamaican Mess Around
TTITLE7=Bump And Grind
TTITLE8=Six O' Clock In The Morning
TTITLE9=Jitterbug Swing
EXTD=
EXTT0=
EXTT1=
EXTT2=
EXTT3=
EXTT4=
EXTT5=
EXTT6=
EXTT7=
EXTT8=
EXTT9=
PLAYORDER=
